<svg xmlns="http://www.w3.org/2000/svg" viewBox="0 0 179.626 118.545"><path d="M92.622 47.261c.216-1.911 2.889-3.481 6.506-4.777-.216-2.514-.364-12.228-1.684-17.369-1.649-1.831-5.13-2.787-5.13-2.787 1.911.182 3.117.455 3.867.682-1.024-.944-2.753-1.706-5.573-1.115-4.686 1.001-4.823 4.982-4.686 7.166l.717 11.409c.262 3.208.319 9.429 2.855 11.34 1.74 1.308 3.879 1.49 5.073 1.308-1.535-1.978-2.115-4.196-1.945-5.857zm20.975-15.515c.569-3.503-3.515-6.006-5.096-6.529-1.991-.66-6.438-.819-7.848 3.583-.136 4.061.398 10.692.819 12.91 1.138-.353 1.82-.523 3.026-.842 3.071-.773 5.778-1.456 8.417-1.638l.023-5.698c0-2.901-1.945-4.914-2.184-5.153 1.614 1.092 2.433 2.355 2.843 3.367zM92.622 47.261c.216-1.911 2.889-3.481 6.506-4.777-.216-2.514-.364-12.228-1.684-17.369-1.649-1.831-5.13-2.787-5.13-2.787 1.911.182 3.117.455 3.867.682-1.024-.944-2.753-1.706-5.573-1.115-4.686 1.001-4.823 4.982-4.686 7.166l.717 11.409c.262 3.208.319 9.429 2.855 11.34 1.74 1.308 3.879 1.49 5.073 1.308-1.535-1.978-2.115-4.196-1.945-5.857zm20.975-15.515c.569-3.503-3.515-6.006-5.096-6.529-1.991-.66-6.438-.819-7.848 3.583-.136 4.061.398 10.692.819 12.91 1.138-.353 1.82-.523 3.026-.842 3.071-.773 5.778-1.456 8.417-1.638l.023-5.698c0-2.901-1.945-4.914-2.184-5.153 1.614 1.092 2.433 2.355 2.843 3.367zm64.186 1.786h-5.505V18.256a5.336 5.336 0 0 0-5.335-5.335h-2.593a5.336 5.336 0 0 0-5.335 5.335v15.276h-.466v-22.01a5.336 5.336 0 0 0-5.335-5.335h-2.593a5.336 5.336 0 0 0-5.335 5.335v22.01h-.466V5.335A5.336 5.336 0 0 0 139.485 0h-2.593a5.336 5.336 0 0 0-5.335 5.335v28.197h-12.842c-.023-.046-.046-.068-.046-.068-1.934-6.279-4.243-9.293-8.542-11.329-5.107-2.423-9.498.057-9.498.057s-2.616-4.231-8.121-4.607c-5.494-.375-9.202 3.81-9.202 3.81s-3.879-2.639-8.19-2.195c-4.322.444-7.575 4.14-7.575 4.14s-5.903-1.718-10.192-.102c-3.276 1.24-4.948 4.868-5.175 6.961l-.353 3.333H47.84V5.335A5.334 5.334 0 0 0 42.506 0h-2.593a5.336 5.336 0 0 0-5.335 5.335v28.197h-.466v-22.01a5.336 5.336 0 0 0-5.335-5.335h-2.593a5.336 5.336 0 0 0-5.335 5.335v22.01h-.466V18.256a5.336 5.336 0 0 0-5.335-5.335h-2.593a5.336 5.336 0 0 0-5.335 5.335v15.276H1.843A1.85 1.85 0 0 0 0 35.375v10.157c0 1.035.83 1.854 1.843 1.854H7.12v15.276a5.336 5.336 0 0 0 5.335 5.335h2.593a5.336 5.336 0 0 0 5.335-5.335V47.386h.466v22.021a5.336 5.336 0 0 0 5.335 5.335h2.593a5.336 5.336 0 0 0 5.335-5.335V47.386h.466v28.197a5.336 5.336 0 0 0 5.335 5.335h2.593a5.336 5.336 0 0 0 5.335-5.335V47.386h2.775c0 4.572.159 15.697 1.513 24.808 1.763 11.784 7.666 14.98 7.666 14.98l-1.797 31.371h1.911l1.809-32.019c-1.638-1.149-3.094-2.571-4.106-4.368-6.279-11.192-4.925-34.772-4.925-34.772h2.366s-.114 1.899-.102 4.857a6.362 6.362 0 0 1 2.127-1.592c-.171-.432-.318-.887-.478-1.376-2.127-6.654-2.548-15.674-2.377-17.528.182-1.877 1.16-5.858 5.687-6.916 4.527-1.069 8.827.535 8.827.535s2.229-3.742 7.154-4.14c4.914-.398 8.338 2.934 8.338 2.934 1.843-3.685 6.119-4.8 9.737-4.345 5.721.705 5.846 6.336 5.846 6.336s1.774-3.549 6.518-3.174c3.583.284 9.316 2.844 10.26 10.556h-1.695c0 2.343-.137 4.709-.159 5.596 1.035 0 1.956.114 2.673.375 1.319.5 2.423 1.501 3.344 2.764.898 1.274 1.615 2.809 2.184 4.356 0 0 3.913 9.407 4.709 12.876.466 2.002 1.501 4.425 1.001 6.893-.33 1.786-1.536 3.503-3.64 6.085-2.946 3.56-6.495 7.553-10.066 10.703-5.983 5.323-9.043 7.609-9.043 7.609l1.638 27.754h2.184l-1.763-27.14c10.044-7.177 18.882-17.994 19.7-18.95 1.706-1.991 4.038-5.938 2.229-11.431-1.422-4.334-2.696-8.645-4.197-12.421l-.5-1.217h6.37v28.197a5.336 5.336 0 0 0 5.335 5.335h2.593a5.336 5.336 0 0 0 5.335-5.335V47.386h.466v22.021a5.336 5.336 0 0 0 5.335 5.335h2.593a5.336 5.336 0 0 0 5.335-5.335V47.386h.466v15.276a5.336 5.336 0 0 0 5.335 5.335h2.593a5.336 5.336 0 0 0 5.335-5.335V47.386h5.505a1.838 1.838 0 0 0 1.843-1.854V35.375a1.845 1.845 0 0 0-1.845-1.843zM7.12 36.012H1.49v-.08c0-.296.091-1.149 1.263-1.149H7.12v1.229zm3.481-16.186L9.304 33.532V19.246c0-4.379 4.607-4.538 4.607-4.538-3.208.932-3.31 5.118-3.31 5.118zm13.763-6.779-1.297 20.486V12.466c0-4.391 4.607-4.538 4.607-4.538-3.208.933-3.31 5.119-3.31 5.119zM37.9 6.756l-1.297 26.776V6.188c0-4.391 4.607-4.538 4.607-4.538-3.219.932-3.31 5.106-3.31 5.106zm9.941 29.256v-1.229h3.867c.011.353.068 1.229.068 1.229h-3.935zm83.716 0h-15.174l.068-1.229h15.105v1.229zm3.322-29.256-1.297 26.776V6.188c0-4.391 4.607-4.538 4.607-4.538-3.219.932-3.31 5.106-3.31 5.106zm13.524 6.291-1.285 20.486V12.466c0-4.391 4.607-4.538 4.607-4.538-3.22.933-3.322 5.119-3.322 5.119zm13.672 6.779-1.297 13.706V19.246c0-4.379 4.607-4.538 4.607-4.538-3.219.932-3.31 5.118-3.31 5.118zm15.833 16.186h-5.63v-1.229h4.368c1.172 0 1.263.853 1.263 1.149l-.001.08zm-64.311-4.266c.569-3.503-3.515-6.006-5.096-6.529-1.991-.66-6.438-.819-7.848 3.583-.136 4.061.398 10.692.819 12.91 1.138-.353 1.82-.523 3.026-.842 3.071-.773 5.778-1.456 8.417-1.638l.023-5.698c0-2.901-1.945-4.914-2.184-5.153 1.614 1.092 2.433 2.355 2.843 3.367zM92.622 47.261c.216-1.911 2.889-3.481 6.506-4.777-.216-2.514-.364-12.228-1.684-17.369-1.649-1.831-5.13-2.787-5.13-2.787 1.911.182 3.117.455 3.867.682-1.024-.944-2.753-1.706-5.573-1.115-4.686 1.001-4.823 4.982-4.686 7.166l.717 11.409c.262 3.208.319 9.429 2.855 11.34 1.74 1.308 3.879 1.49 5.073 1.308-1.535-1.978-2.115-4.196-1.945-5.857zm20.975-15.515c.569-3.503-3.515-6.006-5.096-6.529-1.991-.66-6.438-.819-7.848 3.583-.136 4.061.398 10.692.819 12.91 1.138-.353 1.82-.523 3.026-.842 3.071-.773 5.778-1.456 8.417-1.638l.023-5.698c0-2.901-1.945-4.914-2.184-5.153 1.614 1.092 2.433 2.355 2.843 3.367zM92.622 47.261c.216-1.911 2.889-3.481 6.506-4.777-.216-2.514-.364-12.228-1.684-17.369-1.649-1.831-5.13-2.787-5.13-2.787 1.911.182 3.117.455 3.867.682-1.024-.944-2.753-1.706-5.573-1.115-4.686 1.001-4.823 4.982-4.686 7.166l.717 11.409c.262 3.208.319 9.429 2.855 11.34 1.74 1.308 3.879 1.49 5.073 1.308-1.535-1.978-2.115-4.196-1.945-5.857zm24.126-5.687c-1.524-.796-6.119-.193-10.692.887 2.684 2.354 2.718 5.335 2.718 5.46a7.19 7.19 0 0 0-.637-1.217c-1.661-2.559-4.937-3.572-7.826-2.616a35.59 35.59 0 0 0-2.582.956c-2.025.83-3.174 2.127-3.026 3.185.023.102.034.182.057.284.455.762 1.49 1.558 3.685 2.025 5.073 1.115 8.338-1.035 8.338-1.035s-2.639 2.582-8.372 1.729c-1.536-.239-2.559-.682-3.253-1.172 1.695 4.857 6.847 6.233 11.784 6.04 2.389-.091 5.926-1.308 7.757-2.855 1.16-.967 2.218-2.241 2.753-3.822 0 0-.08 2.718-1.922 4.868 1.865-.182 2.923-.887 3.06-.99-.102.239-2.082 4.083-12.216 4.425-2.059.068-3.833-.159-5.38-.569C85.65 60.012 82.51 77.028 82.51 77.028c.193-14.514 11.249-20.064 14.775-21.464a7.886 7.886 0 0 1-1.001-.717s-.853-.728-1.206-1.115c0 0-5.221 2.104-8.485-2.684-.41.489-1.251 1.206-2.946 1.672-2.787.762-4.845-.546-4.845-.546 4.527 1.024 6.904-2.673 6.904-2.673h.011a13.27 13.27 0 0 1-.682-1.809c-1.319-4.277-1.661-16.231-1.74-20.178-1.968-1.911-4.573-2.639-4.573-2.639 2.639.182 4.152 1.081 4.482 1.297-.501-.489-3.913-3.503-7.757-2.696-.034.011-.08.011-.125.023-3.117.694-5.164 3.663-4.902 6.847.307 3.731.876 10.169 1.365 13.456.717 4.777 1.57 8.986 5.733 10.681 3.947 1.581 8.36-1.808 8.804-2.161-.262.444-3.253 5.13-8.77 4.186-2.07-.353-4.106-1.615-5.539-4.015-.489.444-1.262.933-2.536 1.285-2.787.762-4.846-.546-4.846-.546 3.594.819 5.847-1.365 6.609-2.298a9.723 9.723 0 0 1-.421-1.103c-1.149-3.606-2.548-17.301-2.9-20.906-2.138-.99-4.925-1.126-4.925-1.126 1.627-.591 4.55.171 4.811.239-.387-.205-4.777-2.411-8.77-.375-4.163 2.127-2.946 9.6-2.252 13.592.842 4.925 2.559 12.535 6.552 13.957 3.788 1.342 8.167-1.297 8.61-1.558-.216.364-2.593 4.095-7.314 3.788-2.855-.182-5.266-1.24-7.257-6.04-2.298 1.888-2.309 5.221-2.309 5.312l-.011-.046v.08c1.433-1.513 3.401-2.025 3.64-2.07-3.447 2.07-3.139 8.508-3.117 8.838.682 6.063 2.082 12.614 4.857 17.403 3.424 5.915 14.173 9.873 14.173 9.873s-3.117-.193-6.791-1.365l-1.945 18.62-.161-19.383c-.387-.159-.773-.33-1.16-.512l-2.343 30.393h42.939l-2.491-26.912c-1.354.353-5.846.626-8.019.773l-.944 22.51-1.57-22.351c-2.741.114-5.255.068-6.313-.102 1.865-.125 5.039-.5 8.792-1.501-6.847.637-13.206.102-13.206.102 10.806-.751 17.414-1.649 21.054-2.992 2.582-.955 5.005-2.696 7.45-4.595 10.271-8.053 15.958-16.243 16.47-17.824.923-2.9-5.868-22.077-9.621-24.079zM81.339 79.132s-1.399-5.175.318-10.442c-.318-1.683-1.194-3.037-1.297-3.208.762.466 1.433 1.479 1.752 2.002.819-1.934 2.104-3.845 4.095-5.437-.569.649-5.312 6.325-4.868 17.085zm27.469-21.088c.296.205 5.676 3.924 10.487 3.014 0 0-7.143 3.196-10.487-3.014zm4.789-26.298c.569-3.503-3.515-6.006-5.096-6.529-1.991-.66-6.438-.819-7.848 3.583-.136 4.061.398 10.692.819 12.91 1.138-.353 1.82-.523 3.026-.842 3.071-.773 5.778-1.456 8.417-1.638l.023-5.698c0-2.901-1.945-4.914-2.184-5.153 1.614 1.092 2.433 2.355 2.843 3.367zM92.622 47.261c.216-1.911 2.889-3.481 6.506-4.777-.216-2.514-.364-12.228-1.684-17.369-1.649-1.831-5.13-2.787-5.13-2.787 1.911.182 3.117.455 3.867.682-1.024-.944-2.753-1.706-5.573-1.115-4.686 1.001-4.823 4.982-4.686 7.166l.717 11.409c.262 3.208.319 9.429 2.855 11.34 1.74 1.308 3.879 1.49 5.073 1.308-1.535-1.978-2.115-4.196-1.945-5.857z" fill="#4f46e5"/></svg>